<?xml version="1.0" encoding="iso-8859-1"?>
<!-- Generator: Adobe Illustrator 19.0.0, SVG Export Plug-In . SVG Version: 6.00 Build 0)  -->
<svg version="1.1" id="Capa_1" xmlns="http://www.w3.org/2000/svg" xmlns:xlink="http://www.w3.org/1999/xlink" x="0px" y="0px"
	 viewBox="0 0 508.1 508.1" style="enable-background:new 0 0 508.1 508.1;" xml:space="preserve">
<path style="fill:#40596B;" d="M486.8,0.05H21.2C9.5,0.05,0,9.55,0,21.25v359.9c0,11.7,9.5,21.2,21.2,21.2h465.7
	c11.7,0,21.2-9.5,21.2-21.2V21.25C508,9.55,498.5,0.05,486.8,0.05z"/>
<rect x="33.9" y="33.95" style="fill:#FFFFFF;" width="440.3" height="300.7"/>
<rect x="169.5" y="402.35" style="fill:#ACB3BA;" width="168.9" height="60.7"/>
<path style="fill:#CDD6E0;" d="M393.3,463.05H114.7c-11.7,0-21.2,9.5-21.2,21.2v23.8h320.9v-23.9
	C414.5,472.45,405,463.05,393.3,463.05z"/>
<circle style="fill:#FFFFFF;" cx="254" cy="368.45" r="15"/>
<rect x="169.5" y="402.35" style="fill:#9BA2A5;" width="168.9" height="14.1"/>
<g>
	<path style="fill:#FF7058;" d="M237.8,106.05c-36,0-65.2,29.2-65.2,65.2s29.2,65.2,65.2,65.2c6.8,0,13.3-1,19.5-3l-2.5-13.8
		c-5.3,1.9-11.1,3-17,3c-28.4,0-51.4-23.1-51.4-51.4c0-28.4,23-51.4,51.4-51.4s51.4,23,51.4,51.4c0,3.3-0.3,6.5-0.9,9.6l13.5,2.5
		c0.7-3.9,1.1-8,1.1-12.1C302.9,135.35,273.7,106.05,237.8,106.05z"/>
	<path style="fill:#FF7058;" d="M237.8,77.25c-51.8,0-94.1,42.2-94.1,94.1c0,51.8,42.2,94.1,94.1,94.1c8.5,0,16.8-1.2,24.7-3.3
		l-2.5-13.6c-7.1,2.1-14.5,3.2-22.2,3.2c-44.3,0-80.3-36-80.3-80.3s36-80.3,80.3-80.3s80.3,36,80.3,80.3c0,5-0.5,10-1.4,14.8
		l13.5,2.5c1.1-5.6,1.7-11.3,1.7-17.3C331.8,119.45,289.6,77.25,237.8,77.25z"/>
</g>
<polygon style="fill:#4CDBC4;" points="327.6,225.45 347.4,205.65 263.3,190.35 278.7,274.45 298.5,254.65 335.2,291.25 
	364.3,262.15 "/>
<g>
</g>
<g>
</g>
<g>
</g>
<g>
</g>
<g>
</g>
<g>
</g>
<g>
</g>
<g>
</g>
<g>
</g>
<g>
</g>
<g>
</g>
<g>
</g>
<g>
</g>
<g>
</g>
<g>
</g>
</svg>
